# xmcd
#
# Track frame offsets:
#	150
#	14778
#	27799
#	40956
#	53499
#	68354
#	82271
#	94027
#	109570
#	124613
#
# Disc length: 1858 seconds
#
# Revision: 1
# Processed by: cddbd v1.5.2PL0 Copyright (c) Steve Scherf et al.
# Submitted via: audiograbber 1.83.01
#
DISCID=7607400a
DTITLE=Leon Everette - Where's The Fire
DYEAR=1985
DGENRE=Country
TTITLE0='Til A Tear Becomes A Rose
TTITLE1=(You're Never Guilty) When Love Is Your Alibi
TTITLE2=Where's The Fire
TTITLE3=A Good Love Died Tonight
TTITLE4=Too Good To Say No To
TTITLE5=Feels Like Forever
TTITLE6=I Don't Want To Talk About It Now
TTITLE7=I Still Love Your Body
TTITLE8=It Never Felt Like This Before
TTITLE9=He's Taken Up Where I Left Off
EXTD=
EXTT0=
EXTT1=
EXTT2=
EXTT3=
EXTT4=
EXTT5=
EXTT6=
EXTT7=
EXTT8=
EXTT9=
PLAYORDER=
